# xmcd
#
# Track frame offsets:
#	150
#	31585
#	48248
#	56122
#	68390
#	83771
#	94021
#	111222
#	120431
#	131747
#	143704
#	155293
#
# Disc length: 2246 seconds
#
# Revision: 0
# Processed by: cddbd v1.5.1PL0 Copyright (c) Steve Scherf et al.
# Submitted via: dBpowerAMP V4.0
#
DISCID=9008c40c
DTITLE=John Paul and Other - Nowiny swoim czytelnikom
DYEAR=1900
DGENRE=CHRISMAS
TTITLE0=Jan Pawel II - Wsrod nocnej ciszy
TTITLE1=Winszowanie gorskie - Goralska Kapela Jarka Zawady
TTITLE2=A wcora z wiecora - Goralska Kapela Jarka Zawady
TTITLE3=Aniol sie zwiastuje - Goralska Kapela Jarka Zawady
TTITLE4=Dzisiaj w Betlejem - Goralska Kapela Jarka Zawady
TTITLE5=Pojdzmy wszyscy do stajenki - Goralska Kapela Jarka Zawady
TTITLE6=Oj, malucki - Goralska Kapela Jarka Zawady
TTITLE7=Dnia jednego - Goralska Kapela Jarka Zawady
TTITLE8=Mizerna cicha - Goralska Kapela Jarka Zawady
TTITLE9=Slyse z nieba muzyke - Goralska Kapela Jarka Zawady
TTITLE10=Przybiezeli do Betlejem - Igor Jaszczuk
TTITLE11=Bog siê rodzi - Igor Jaszczuk
EXTD="Wsrod nocnej ciszy" spiewa Ojciec Swiêty najslynniejszy kolednik z gor oraz 11 tradysyjnych koled
EXTT0=
EXTT1=
EXTT2=
EXTT3=
EXTT4=
EXTT5=
EXTT6=
EXTT7=
EXTT8=
EXTT9=
EXTT10=
EXTT11=
PLAYORDER=
